<mxfile host="app.diagrams.net" agent="Mozilla/5.0 (Windows NT 10.0; Win64; x64) AppleWebKit/537.36 (KHTML, like Gecko) Chrome/129.0.0.0 Safari/537.36" version="24.7.17">
  <diagram name="Trang-1" id="4L5tw3__3EmhCwlKeqgT">
    <mxGraphModel dx="2353" dy="2118" grid="1" gridSize="10" guides="1" tooltips="1" connect="1" arrows="1" fold="1" page="1" pageScale="1" pageWidth="827" pageHeight="1169" math="0" shadow="0">
      <root>
        <mxCell id="0" />
        <mxCell id="1" parent="0" />
        <mxCell id="TT3b6GU9GvUDREySQNR4-1" value="User" style="html=1;whiteSpace=wrap;" parent="1" vertex="1">
          <mxGeometry x="-122" y="85" width="110" height="50" as="geometry" />
        </mxCell>
        <mxCell id="TT3b6GU9GvUDREySQNR4-2" value="Account" style="html=1;whiteSpace=wrap;" parent="1" vertex="1">
          <mxGeometry x="381" y="85" width="110" height="50" as="geometry" />
        </mxCell>
        <mxCell id="TT3b6GU9GvUDREySQNR4-3" value="Admin" style="html=1;whiteSpace=wrap;" parent="1" vertex="1">
          <mxGeometry x="817" y="80" width="110" height="50" as="geometry" />
        </mxCell>
        <mxCell id="TT3b6GU9GvUDREySQNR4-4" value="Payment" style="html=1;whiteSpace=wrap;" parent="1" vertex="1">
          <mxGeometry x="267" y="863" width="110" height="50" as="geometry" />
        </mxCell>
        <mxCell id="TT3b6GU9GvUDREySQNR4-5" value="Order" style="html=1;whiteSpace=wrap;" parent="1" vertex="1">
          <mxGeometry x="397" y="378" width="110" height="50" as="geometry" />
        </mxCell>
        <mxCell id="TT3b6GU9GvUDREySQNR4-6" value="Delivery" style="html=1;whiteSpace=wrap;" parent="1" vertex="1">
          <mxGeometry x="712" y="378" width="110" height="50" as="geometry" />
        </mxCell>
        <mxCell id="TT3b6GU9GvUDREySQNR4-7" value="Promotion" style="html=1;whiteSpace=wrap;" parent="1" vertex="1">
          <mxGeometry x="397" y="196" width="110" height="50" as="geometry" />
        </mxCell>
        <mxCell id="TT3b6GU9GvUDREySQNR4-8" value="Product" style="html=1;whiteSpace=wrap;" parent="1" vertex="1">
          <mxGeometry x="396" y="744" width="110" height="50" as="geometry" />
        </mxCell>
        <mxCell id="TT3b6GU9GvUDREySQNR4-9" value="Category" style="html=1;whiteSpace=wrap;" parent="1" vertex="1">
          <mxGeometry x="696" y="745" width="110" height="50" as="geometry" />
        </mxCell>
        <mxCell id="TT3b6GU9GvUDREySQNR4-10" value="Comment" style="html=1;whiteSpace=wrap;" parent="1" vertex="1">
          <mxGeometry x="9" y="745" width="110" height="50" as="geometry" />
        </mxCell>
        <mxCell id="TT3b6GU9GvUDREySQNR4-24" value="Has" style="shape=rhombus;perimeter=rhombusPerimeter;whiteSpace=wrap;html=1;align=center;" parent="1" vertex="1">
          <mxGeometry x="162" y="80" width="120" height="60" as="geometry" />
        </mxCell>
        <mxCell id="TT3b6GU9GvUDREySQNR4-28" value="Has" style="shape=rhombus;perimeter=rhombusPerimeter;whiteSpace=wrap;html=1;align=center;" parent="1" vertex="1">
          <mxGeometry x="599" y="80" width="120" height="60" as="geometry" />
        </mxCell>
        <mxCell id="TT3b6GU9GvUDREySQNR4-30" value="Observe" style="shape=rhombus;perimeter=rhombusPerimeter;whiteSpace=wrap;html=1;align=center;" parent="1" vertex="1">
          <mxGeometry x="727" y="283" width="120" height="60" as="geometry" />
        </mxCell>
        <mxCell id="TT3b6GU9GvUDREySQNR4-32" value="&amp;nbsp;Rate" style="shape=rhombus;perimeter=rhombusPerimeter;whiteSpace=wrap;html=1;align=center;" parent="1" vertex="1">
          <mxGeometry x="5" y="483" width="120" height="60" as="geometry" />
        </mxCell>
        <mxCell id="TT3b6GU9GvUDREySQNR4-35" value="advance" style="shape=rhombus;perimeter=rhombusPerimeter;whiteSpace=wrap;html=1;align=center;" parent="1" vertex="1">
          <mxGeometry x="557" y="373" width="120" height="60" as="geometry" />
        </mxCell>
        <mxCell id="TT3b6GU9GvUDREySQNR4-38" value="Observe" style="shape=rhombus;perimeter=rhombusPerimeter;whiteSpace=wrap;html=1;align=center;" parent="1" vertex="1">
          <mxGeometry x="817" y="858" width="120" height="60" as="geometry" />
        </mxCell>
        <mxCell id="TT3b6GU9GvUDREySQNR4-41" value="Pay" style="shape=rhombus;perimeter=rhombusPerimeter;whiteSpace=wrap;html=1;align=center;" parent="1" vertex="1">
          <mxGeometry x="-126" y="859" width="120" height="60" as="geometry" />
        </mxCell>
        <mxCell id="TT3b6GU9GvUDREySQNR4-45" value="" style="endArrow=none;html=1;rounded=0;" parent="1" source="TT3b6GU9GvUDREySQNR4-3" target="TT3b6GU9GvUDREySQNR4-30" edge="1">
          <mxGeometry relative="1" as="geometry">
            <mxPoint x="487" y="410" as="sourcePoint" />
            <mxPoint x="947" y="160" as="targetPoint" />
          </mxGeometry>
        </mxCell>
        <mxCell id="TT3b6GU9GvUDREySQNR4-46" value="1" style="resizable=0;html=1;whiteSpace=wrap;align=right;verticalAlign=bottom;" parent="TT3b6GU9GvUDREySQNR4-45" connectable="0" vertex="1">
          <mxGeometry x="1" relative="1" as="geometry">
            <mxPoint y="-7" as="offset" />
          </mxGeometry>
        </mxCell>
        <mxCell id="TT3b6GU9GvUDREySQNR4-47" value="" style="endArrow=none;html=1;rounded=0;" parent="1" source="TT3b6GU9GvUDREySQNR4-6" target="TT3b6GU9GvUDREySQNR4-30" edge="1">
          <mxGeometry relative="1" as="geometry">
            <mxPoint x="272" y="528" as="sourcePoint" />
            <mxPoint x="742" y="398" as="targetPoint" />
          </mxGeometry>
        </mxCell>
        <mxCell id="TT3b6GU9GvUDREySQNR4-48" value="N" style="resizable=0;html=1;whiteSpace=wrap;align=right;verticalAlign=bottom;" parent="TT3b6GU9GvUDREySQNR4-47" connectable="0" vertex="1">
          <mxGeometry x="1" relative="1" as="geometry">
            <mxPoint x="-5" y="20" as="offset" />
          </mxGeometry>
        </mxCell>
        <mxCell id="TT3b6GU9GvUDREySQNR4-49" value="" style="endArrow=none;html=1;rounded=0;" parent="1" source="TT3b6GU9GvUDREySQNR4-1" target="TT3b6GU9GvUDREySQNR4-24" edge="1">
          <mxGeometry relative="1" as="geometry">
            <mxPoint x="160" y="170" as="sourcePoint" />
            <mxPoint x="725" y="140" as="targetPoint" />
          </mxGeometry>
        </mxCell>
        <mxCell id="TT3b6GU9GvUDREySQNR4-50" value="1" style="resizable=0;html=1;whiteSpace=wrap;align=right;verticalAlign=bottom;" parent="TT3b6GU9GvUDREySQNR4-49" connectable="0" vertex="1">
          <mxGeometry x="1" relative="1" as="geometry" />
        </mxCell>
        <mxCell id="TT3b6GU9GvUDREySQNR4-51" value="" style="endArrow=none;html=1;rounded=0;" parent="1" source="TT3b6GU9GvUDREySQNR4-2" target="TT3b6GU9GvUDREySQNR4-24" edge="1">
          <mxGeometry relative="1" as="geometry">
            <mxPoint x="892" y="210" as="sourcePoint" />
            <mxPoint x="457" y="150" as="targetPoint" />
          </mxGeometry>
        </mxCell>
        <mxCell id="TT3b6GU9GvUDREySQNR4-52" value="1" style="resizable=0;html=1;whiteSpace=wrap;align=right;verticalAlign=bottom;" parent="TT3b6GU9GvUDREySQNR4-51" connectable="0" vertex="1">
          <mxGeometry x="1" relative="1" as="geometry" />
        </mxCell>
        <mxCell id="TT3b6GU9GvUDREySQNR4-53" value="" style="endArrow=none;html=1;rounded=0;" parent="1" source="TT3b6GU9GvUDREySQNR4-2" target="TT3b6GU9GvUDREySQNR4-28" edge="1">
          <mxGeometry relative="1" as="geometry">
            <mxPoint x="902" y="220" as="sourcePoint" />
            <mxPoint x="902" y="160" as="targetPoint" />
          </mxGeometry>
        </mxCell>
        <mxCell id="TT3b6GU9GvUDREySQNR4-54" value="1" style="resizable=0;html=1;whiteSpace=wrap;align=right;verticalAlign=bottom;" parent="TT3b6GU9GvUDREySQNR4-53" connectable="0" vertex="1">
          <mxGeometry x="1" relative="1" as="geometry" />
        </mxCell>
        <mxCell id="TT3b6GU9GvUDREySQNR4-55" value="" style="endArrow=none;html=1;rounded=0;" parent="1" source="TT3b6GU9GvUDREySQNR4-3" target="TT3b6GU9GvUDREySQNR4-28" edge="1">
          <mxGeometry relative="1" as="geometry">
            <mxPoint x="912" y="230" as="sourcePoint" />
            <mxPoint x="912" y="170" as="targetPoint" />
          </mxGeometry>
        </mxCell>
        <mxCell id="TT3b6GU9GvUDREySQNR4-56" value="1" style="resizable=0;html=1;whiteSpace=wrap;align=right;verticalAlign=bottom;" parent="TT3b6GU9GvUDREySQNR4-55" connectable="0" vertex="1">
          <mxGeometry x="1" relative="1" as="geometry">
            <mxPoint x="4" y="-3" as="offset" />
          </mxGeometry>
        </mxCell>
        <mxCell id="TT3b6GU9GvUDREySQNR4-57" value="" style="endArrow=none;html=1;rounded=0;" parent="1" source="TT3b6GU9GvUDREySQNR4-3" target="TT3b6GU9GvUDREySQNR4-38" edge="1">
          <mxGeometry relative="1" as="geometry">
            <mxPoint x="922" y="240" as="sourcePoint" />
            <mxPoint x="922" y="180" as="targetPoint" />
          </mxGeometry>
        </mxCell>
        <mxCell id="TT3b6GU9GvUDREySQNR4-58" value="1" style="resizable=0;html=1;whiteSpace=wrap;align=right;verticalAlign=bottom;" parent="TT3b6GU9GvUDREySQNR4-57" connectable="0" vertex="1">
          <mxGeometry x="1" relative="1" as="geometry" />
        </mxCell>
        <mxCell id="TT3b6GU9GvUDREySQNR4-59" value="" style="endArrow=none;html=1;rounded=0;" parent="1" source="TT3b6GU9GvUDREySQNR4-1" target="TT3b6GU9GvUDREySQNR4-41" edge="1">
          <mxGeometry relative="1" as="geometry">
            <mxPoint x="775" y="250" as="sourcePoint" />
            <mxPoint x="775" y="190" as="targetPoint" />
          </mxGeometry>
        </mxCell>
        <mxCell id="TT3b6GU9GvUDREySQNR4-60" value="1" style="resizable=0;html=1;whiteSpace=wrap;align=right;verticalAlign=bottom;" parent="TT3b6GU9GvUDREySQNR4-59" connectable="0" vertex="1">
          <mxGeometry x="1" relative="1" as="geometry">
            <mxPoint x="-10" y="-3" as="offset" />
          </mxGeometry>
        </mxCell>
        <mxCell id="TT3b6GU9GvUDREySQNR4-61" value="" style="endArrow=none;html=1;rounded=0;" parent="1" source="TT3b6GU9GvUDREySQNR4-4" target="TT3b6GU9GvUDREySQNR4-41" edge="1">
          <mxGeometry relative="1" as="geometry">
            <mxPoint x="267" y="887.1439790575917" as="sourcePoint" />
            <mxPoint x="-0.3125" y="887.84375" as="targetPoint" />
          </mxGeometry>
        </mxCell>
        <mxCell id="TT3b6GU9GvUDREySQNR4-62" value="1" style="resizable=0;html=1;whiteSpace=wrap;align=right;verticalAlign=bottom;" parent="TT3b6GU9GvUDREySQNR4-61" connectable="0" vertex="1">
          <mxGeometry x="1" relative="1" as="geometry" />
        </mxCell>
        <mxCell id="TT3b6GU9GvUDREySQNR4-63" value="" style="endArrow=none;html=1;rounded=0;entryX=0;entryY=0;entryDx=0;entryDy=0;" parent="1" source="TT3b6GU9GvUDREySQNR4-1" target="TT3b6GU9GvUDREySQNR4-32" edge="1">
          <mxGeometry relative="1" as="geometry">
            <mxPoint x="795" y="270" as="sourcePoint" />
            <mxPoint x="795" y="210" as="targetPoint" />
          </mxGeometry>
        </mxCell>
        <mxCell id="TT3b6GU9GvUDREySQNR4-64" value="1" style="resizable=0;html=1;whiteSpace=wrap;align=right;verticalAlign=bottom;" parent="TT3b6GU9GvUDREySQNR4-63" connectable="0" vertex="1">
          <mxGeometry x="1" relative="1" as="geometry">
            <mxPoint x="10" y="-20" as="offset" />
          </mxGeometry>
        </mxCell>
        <mxCell id="TT3b6GU9GvUDREySQNR4-67" value="" style="endArrow=none;html=1;rounded=0;" parent="1" source="TT3b6GU9GvUDREySQNR4-5" target="TT3b6GU9GvUDREySQNR4-35" edge="1">
          <mxGeometry relative="1" as="geometry">
            <mxPoint x="507" y="468.66666666666674" as="sourcePoint" />
            <mxPoint x="560.4285714285716" y="470.2857142857142" as="targetPoint" />
          </mxGeometry>
        </mxCell>
        <mxCell id="TT3b6GU9GvUDREySQNR4-68" value="1" style="resizable=0;html=1;whiteSpace=wrap;align=right;verticalAlign=bottom;" parent="TT3b6GU9GvUDREySQNR4-67" connectable="0" vertex="1">
          <mxGeometry x="1" relative="1" as="geometry">
            <mxPoint x="3" y="-2" as="offset" />
          </mxGeometry>
        </mxCell>
        <mxCell id="TT3b6GU9GvUDREySQNR4-69" value="" style="endArrow=none;html=1;rounded=0;" parent="1" source="TT3b6GU9GvUDREySQNR4-6" target="TT3b6GU9GvUDREySQNR4-35" edge="1">
          <mxGeometry relative="1" as="geometry">
            <mxPoint x="707" y="475.1034482758621" as="sourcePoint" />
            <mxPoint x="673.1290322580644" y="473.9354838709678" as="targetPoint" />
          </mxGeometry>
        </mxCell>
        <mxCell id="TT3b6GU9GvUDREySQNR4-70" value="1" style="resizable=0;html=1;whiteSpace=wrap;align=right;verticalAlign=bottom;" parent="TT3b6GU9GvUDREySQNR4-69" connectable="0" vertex="1">
          <mxGeometry x="1" relative="1" as="geometry">
            <mxPoint y="-2" as="offset" />
          </mxGeometry>
        </mxCell>
        <mxCell id="TT3b6GU9GvUDREySQNR4-73" value="" style="endArrow=none;html=1;rounded=0;" parent="1" source="TT3b6GU9GvUDREySQNR4-10" target="TT3b6GU9GvUDREySQNR4-32" edge="1">
          <mxGeometry relative="1" as="geometry">
            <mxPoint x="400" y="596" as="sourcePoint" />
            <mxPoint x="-65" y="616" as="targetPoint" />
            <Array as="points" />
          </mxGeometry>
        </mxCell>
        <mxCell id="TT3b6GU9GvUDREySQNR4-74" value="N" style="resizable=0;html=1;whiteSpace=wrap;align=right;verticalAlign=bottom;" parent="TT3b6GU9GvUDREySQNR4-73" connectable="0" vertex="1">
          <mxGeometry x="1" relative="1" as="geometry">
            <mxPoint x="-5" y="20" as="offset" />
          </mxGeometry>
        </mxCell>
        <mxCell id="TT3b6GU9GvUDREySQNR4-75" value="Has" style="shape=rhombus;perimeter=rhombusPerimeter;whiteSpace=wrap;html=1;align=center;" parent="1" vertex="1">
          <mxGeometry x="220" y="738" width="120" height="60" as="geometry" />
        </mxCell>
        <mxCell id="TT3b6GU9GvUDREySQNR4-76" value="" style="endArrow=none;html=1;rounded=0;" parent="1" source="TT3b6GU9GvUDREySQNR4-8" target="TT3b6GU9GvUDREySQNR4-75" edge="1">
          <mxGeometry relative="1" as="geometry">
            <mxPoint x="387" y="982" as="sourcePoint" />
            <mxPoint x="357" y="1022" as="targetPoint" />
          </mxGeometry>
        </mxCell>
        <mxCell id="TT3b6GU9GvUDREySQNR4-77" value="1" style="resizable=0;html=1;whiteSpace=wrap;align=right;verticalAlign=bottom;" parent="TT3b6GU9GvUDREySQNR4-76" connectable="0" vertex="1">
          <mxGeometry x="1" relative="1" as="geometry">
            <mxPoint x="9" y="-4" as="offset" />
          </mxGeometry>
        </mxCell>
        <mxCell id="TT3b6GU9GvUDREySQNR4-78" value="" style="endArrow=none;html=1;rounded=0;" parent="1" source="TT3b6GU9GvUDREySQNR4-10" target="TT3b6GU9GvUDREySQNR4-75" edge="1">
          <mxGeometry relative="1" as="geometry">
            <mxPoint x="-55" y="882" as="sourcePoint" />
            <mxPoint x="-55" y="732" as="targetPoint" />
            <Array as="points" />
          </mxGeometry>
        </mxCell>
        <mxCell id="TT3b6GU9GvUDREySQNR4-79" value="N" style="resizable=0;html=1;whiteSpace=wrap;align=right;verticalAlign=bottom;" parent="TT3b6GU9GvUDREySQNR4-78" connectable="0" vertex="1">
          <mxGeometry x="1" relative="1" as="geometry">
            <mxPoint x="4" y="-5" as="offset" />
          </mxGeometry>
        </mxCell>
        <mxCell id="TT3b6GU9GvUDREySQNR4-80" value="Change" style="shape=rhombus;perimeter=rhombusPerimeter;whiteSpace=wrap;html=1;align=center;" parent="1" vertex="1">
          <mxGeometry x="597" y="191" width="120" height="60" as="geometry" />
        </mxCell>
        <mxCell id="TT3b6GU9GvUDREySQNR4-81" value="" style="endArrow=none;html=1;rounded=0;" parent="1" source="TT3b6GU9GvUDREySQNR4-3" target="TT3b6GU9GvUDREySQNR4-80" edge="1">
          <mxGeometry relative="1" as="geometry">
            <mxPoint x="837.9177631578946" y="100" as="sourcePoint" />
            <mxPoint x="889.78" y="80" as="targetPoint" />
          </mxGeometry>
        </mxCell>
        <mxCell id="TT3b6GU9GvUDREySQNR4-82" value="1" style="resizable=0;html=1;whiteSpace=wrap;align=right;verticalAlign=bottom;" parent="TT3b6GU9GvUDREySQNR4-81" connectable="0" vertex="1">
          <mxGeometry x="1" relative="1" as="geometry">
            <mxPoint x="4" y="-2" as="offset" />
          </mxGeometry>
        </mxCell>
        <mxCell id="TT3b6GU9GvUDREySQNR4-83" value="" style="endArrow=none;html=1;rounded=0;" parent="1" source="TT3b6GU9GvUDREySQNR4-7" target="TT3b6GU9GvUDREySQNR4-80" edge="1">
          <mxGeometry relative="1" as="geometry">
            <mxPoint x="541.046875" y="301" as="sourcePoint" />
            <mxPoint x="849.78" y="328" as="targetPoint" />
            <Array as="points" />
          </mxGeometry>
        </mxCell>
        <mxCell id="TT3b6GU9GvUDREySQNR4-84" value="N" style="resizable=0;html=1;whiteSpace=wrap;align=right;verticalAlign=bottom;" parent="TT3b6GU9GvUDREySQNR4-83" connectable="0" vertex="1">
          <mxGeometry x="1" relative="1" as="geometry" />
        </mxCell>
        <mxCell id="TT3b6GU9GvUDREySQNR4-85" value="" style="endArrow=none;html=1;rounded=0;" parent="1" source="TT3b6GU9GvUDREySQNR4-38" target="TT3b6GU9GvUDREySQNR4-4" edge="1">
          <mxGeometry relative="1" as="geometry">
            <mxPoint x="487" y="748" as="sourcePoint" />
            <mxPoint x="647" y="748" as="targetPoint" />
          </mxGeometry>
        </mxCell>
        <mxCell id="TT3b6GU9GvUDREySQNR4-86" value="N" style="resizable=0;html=1;whiteSpace=wrap;align=right;verticalAlign=bottom;" parent="TT3b6GU9GvUDREySQNR4-85" connectable="0" vertex="1">
          <mxGeometry x="1" relative="1" as="geometry">
            <mxPoint x="445" y="-8" as="offset" />
          </mxGeometry>
        </mxCell>
        <mxCell id="TT3b6GU9GvUDREySQNR4-87" value="Has" style="shape=rhombus;perimeter=rhombusPerimeter;whiteSpace=wrap;html=1;align=center;" parent="1" vertex="1">
          <mxGeometry x="541" y="739" width="120" height="60" as="geometry" />
        </mxCell>
        <mxCell id="TT3b6GU9GvUDREySQNR4-88" value="" style="endArrow=none;html=1;rounded=0;" parent="1" source="TT3b6GU9GvUDREySQNR4-8" target="TT3b6GU9GvUDREySQNR4-87" edge="1">
          <mxGeometry relative="1" as="geometry">
            <mxPoint x="604.5" y="790" as="sourcePoint" />
            <mxPoint x="464.5" y="1092" as="targetPoint" />
          </mxGeometry>
        </mxCell>
        <mxCell id="TT3b6GU9GvUDREySQNR4-89" value="1" style="resizable=0;html=1;whiteSpace=wrap;align=right;verticalAlign=bottom;" parent="TT3b6GU9GvUDREySQNR4-88" connectable="0" vertex="1">
          <mxGeometry x="1" relative="1" as="geometry">
            <mxPoint x="9" y="-4" as="offset" />
          </mxGeometry>
        </mxCell>
        <mxCell id="TT3b6GU9GvUDREySQNR4-90" value="" style="endArrow=none;html=1;rounded=0;" parent="1" source="TT3b6GU9GvUDREySQNR4-9" target="TT3b6GU9GvUDREySQNR4-87" edge="1">
          <mxGeometry relative="1" as="geometry">
            <mxPoint x="729.5" y="838.9814814814815" as="sourcePoint" />
            <mxPoint x="209.5" y="802" as="targetPoint" />
            <Array as="points" />
          </mxGeometry>
        </mxCell>
        <mxCell id="TT3b6GU9GvUDREySQNR4-91" value="N" style="resizable=0;html=1;whiteSpace=wrap;align=right;verticalAlign=bottom;" parent="TT3b6GU9GvUDREySQNR4-90" connectable="0" vertex="1">
          <mxGeometry x="1" relative="1" as="geometry">
            <mxPoint x="4" y="-5" as="offset" />
          </mxGeometry>
        </mxCell>
        <mxCell id="TT3b6GU9GvUDREySQNR4-92" value="Has" style="shape=rhombus;perimeter=rhombusPerimeter;whiteSpace=wrap;html=1;align=center;" parent="1" vertex="1">
          <mxGeometry x="392" y="462" width="120" height="60" as="geometry" />
        </mxCell>
        <mxCell id="TT3b6GU9GvUDREySQNR4-93" value="" style="endArrow=none;html=1;rounded=0;" parent="1" source="TT3b6GU9GvUDREySQNR4-5" target="TT3b6GU9GvUDREySQNR4-92" edge="1">
          <mxGeometry relative="1" as="geometry">
            <mxPoint x="452" y="492" as="sourcePoint" />
            <mxPoint x="485" y="1059" as="targetPoint" />
          </mxGeometry>
        </mxCell>
        <mxCell id="TT3b6GU9GvUDREySQNR4-94" value="1" style="resizable=0;html=1;whiteSpace=wrap;align=right;verticalAlign=bottom;" parent="TT3b6GU9GvUDREySQNR4-93" connectable="0" vertex="1">
          <mxGeometry x="1" relative="1" as="geometry">
            <mxPoint x="13" y="2" as="offset" />
          </mxGeometry>
        </mxCell>
        <mxCell id="TT3b6GU9GvUDREySQNR4-95" value="" style="endArrow=none;html=1;rounded=0;" parent="1" source="TT3b6GU9GvUDREySQNR4-97" target="TT3b6GU9GvUDREySQNR4-92" edge="1">
          <mxGeometry relative="1" as="geometry">
            <mxPoint x="716.5" y="737" as="sourcePoint" />
            <mxPoint x="230" y="769" as="targetPoint" />
            <Array as="points" />
          </mxGeometry>
        </mxCell>
        <mxCell id="TT3b6GU9GvUDREySQNR4-96" value="N" style="resizable=0;html=1;whiteSpace=wrap;align=right;verticalAlign=bottom;" parent="TT3b6GU9GvUDREySQNR4-95" connectable="0" vertex="1">
          <mxGeometry x="1" relative="1" as="geometry">
            <mxPoint x="-2" y="17" as="offset" />
          </mxGeometry>
        </mxCell>
        <mxCell id="TT3b6GU9GvUDREySQNR4-97" value="Order Detail" style="html=1;whiteSpace=wrap;" parent="1" vertex="1">
          <mxGeometry x="397" y="569" width="110" height="50" as="geometry" />
        </mxCell>
        <mxCell id="TT3b6GU9GvUDREySQNR4-98" value="Has" style="shape=rhombus;perimeter=rhombusPerimeter;whiteSpace=wrap;html=1;align=center;" parent="1" vertex="1">
          <mxGeometry x="391" y="652" width="120" height="60" as="geometry" />
        </mxCell>
        <mxCell id="TT3b6GU9GvUDREySQNR4-99" value="" style="endArrow=none;html=1;rounded=0;" parent="1" source="TT3b6GU9GvUDREySQNR4-8" target="TT3b6GU9GvUDREySQNR4-98" edge="1">
          <mxGeometry relative="1" as="geometry">
            <mxPoint y="324" as="sourcePoint" />
            <mxPoint x="735" y="354" as="targetPoint" />
          </mxGeometry>
        </mxCell>
        <mxCell id="TT3b6GU9GvUDREySQNR4-100" value="1" style="resizable=0;html=1;whiteSpace=wrap;align=right;verticalAlign=bottom;" parent="TT3b6GU9GvUDREySQNR4-99" connectable="0" vertex="1">
          <mxGeometry x="1" relative="1" as="geometry">
            <mxPoint x="-5" y="16" as="offset" />
          </mxGeometry>
        </mxCell>
        <mxCell id="TT3b6GU9GvUDREySQNR4-101" value="" style="endArrow=none;html=1;rounded=0;" parent="1" source="TT3b6GU9GvUDREySQNR4-97" target="TT3b6GU9GvUDREySQNR4-98" edge="1">
          <mxGeometry relative="1" as="geometry">
            <mxPoint x="391" y="324" as="sourcePoint" />
            <mxPoint x="467" y="364" as="targetPoint" />
          </mxGeometry>
        </mxCell>
        <mxCell id="TT3b6GU9GvUDREySQNR4-102" value="1" style="resizable=0;html=1;whiteSpace=wrap;align=right;verticalAlign=bottom;" parent="TT3b6GU9GvUDREySQNR4-101" connectable="0" vertex="1">
          <mxGeometry x="1" relative="1" as="geometry" />
        </mxCell>
        <mxCell id="xANfVYWBUugLLFJxZVE2-2" value="Apply" style="shape=rhombus;perimeter=rhombusPerimeter;whiteSpace=wrap;html=1;align=center;" parent="1" vertex="1">
          <mxGeometry x="391" y="281" width="120" height="60" as="geometry" />
        </mxCell>
        <mxCell id="xANfVYWBUugLLFJxZVE2-3" value="" style="endArrow=none;html=1;rounded=0;" parent="1" source="xANfVYWBUugLLFJxZVE2-2" target="TT3b6GU9GvUDREySQNR4-7" edge="1">
          <mxGeometry relative="1" as="geometry">
            <mxPoint x="310" y="552" as="sourcePoint" />
            <mxPoint x="470" y="552" as="targetPoint" />
          </mxGeometry>
        </mxCell>
        <mxCell id="xANfVYWBUugLLFJxZVE2-4" value="" style="endArrow=none;html=1;rounded=0;" parent="1" source="xANfVYWBUugLLFJxZVE2-2" target="TT3b6GU9GvUDREySQNR4-5" edge="1">
          <mxGeometry relative="1" as="geometry">
            <mxPoint x="310" y="552" as="sourcePoint" />
            <mxPoint x="470" y="552" as="targetPoint" />
          </mxGeometry>
        </mxCell>
        <mxCell id="xANfVYWBUugLLFJxZVE2-5" value="Observe" style="shape=rhombus;perimeter=rhombusPerimeter;whiteSpace=wrap;html=1;align=center;" parent="1" vertex="1">
          <mxGeometry x="381" y="-10" width="120" height="60" as="geometry" />
        </mxCell>
        <mxCell id="xANfVYWBUugLLFJxZVE2-6" value="" style="endArrow=none;html=1;rounded=0;" parent="1" source="TT3b6GU9GvUDREySQNR4-1" target="xANfVYWBUugLLFJxZVE2-5" edge="1">
          <mxGeometry relative="1" as="geometry">
            <mxPoint x="-70.61111111111109" y="85" as="sourcePoint" />
            <mxPoint x="369" y="20" as="targetPoint" />
            <Array as="points">
              <mxPoint x="-67" y="20" />
            </Array>
          </mxGeometry>
        </mxCell>
        <mxCell id="xANfVYWBUugLLFJxZVE2-7" value="N" style="resizable=0;html=1;whiteSpace=wrap;align=right;verticalAlign=bottom;" parent="xANfVYWBUugLLFJxZVE2-6" connectable="0" vertex="1">
          <mxGeometry x="1" relative="1" as="geometry" />
        </mxCell>
        <mxCell id="xANfVYWBUugLLFJxZVE2-8" value="" style="endArrow=none;html=1;rounded=0;" parent="1" source="TT3b6GU9GvUDREySQNR4-3" target="xANfVYWBUugLLFJxZVE2-5" edge="1">
          <mxGeometry relative="1" as="geometry">
            <mxPoint x="300" y="330" as="sourcePoint" />
            <mxPoint x="460" y="330" as="targetPoint" />
            <Array as="points">
              <mxPoint x="870" y="20" />
            </Array>
          </mxGeometry>
        </mxCell>
        <mxCell id="xANfVYWBUugLLFJxZVE2-9" value="1" style="resizable=0;html=1;whiteSpace=wrap;align=right;verticalAlign=bottom;" parent="xANfVYWBUugLLFJxZVE2-8" connectable="0" vertex="1">
          <mxGeometry x="1" relative="1" as="geometry" />
        </mxCell>
        <mxCell id="lVBCcf4ss-iberl4f2fq-1" value="Observe" style="shape=rhombus;perimeter=rhombusPerimeter;whiteSpace=wrap;html=1;align=center;" vertex="1" parent="1">
          <mxGeometry x="80" y="373" width="120" height="60" as="geometry" />
        </mxCell>
        <mxCell id="lVBCcf4ss-iberl4f2fq-2" value="" style="endArrow=none;html=1;rounded=0;" edge="1" parent="1" source="TT3b6GU9GvUDREySQNR4-1" target="lVBCcf4ss-iberl4f2fq-1">
          <mxGeometry relative="1" as="geometry">
            <mxPoint x="370" y="430" as="sourcePoint" />
            <mxPoint x="530" y="430" as="targetPoint" />
          </mxGeometry>
        </mxCell>
        <mxCell id="lVBCcf4ss-iberl4f2fq-3" value="1" style="resizable=0;html=1;whiteSpace=wrap;align=right;verticalAlign=bottom;" connectable="0" vertex="1" parent="lVBCcf4ss-iberl4f2fq-2">
          <mxGeometry x="1" relative="1" as="geometry">
            <mxPoint x="4" y="-7" as="offset" />
          </mxGeometry>
        </mxCell>
        <mxCell id="lVBCcf4ss-iberl4f2fq-4" value="" style="endArrow=none;html=1;rounded=0;" edge="1" parent="1" source="TT3b6GU9GvUDREySQNR4-5" target="lVBCcf4ss-iberl4f2fq-1">
          <mxGeometry relative="1" as="geometry">
            <mxPoint x="370" y="430" as="sourcePoint" />
            <mxPoint x="530" y="430" as="targetPoint" />
          </mxGeometry>
        </mxCell>
        <mxCell id="lVBCcf4ss-iberl4f2fq-5" value="N" style="resizable=0;html=1;whiteSpace=wrap;align=right;verticalAlign=bottom;" connectable="0" vertex="1" parent="lVBCcf4ss-iberl4f2fq-4">
          <mxGeometry x="1" relative="1" as="geometry">
            <mxPoint x="2" y="-4" as="offset" />
          </mxGeometry>
        </mxCell>
      </root>
    </mxGraphModel>
  </diagram>
</mxfile>
